#!OML:ASF F:\VICON\USERDATA\INSTALL\rory3\rory3.ASF
:FULLY-SPECIFIED
:DEGREES
720
root 0.0228262 16.937 17.3945 -160.183 -29.6474 -176.337
lowerback -12.7751 2.57114 2.95696
upperback -8.50146 2.17319 1.56992
thorax -1.70612 0.602586 0.22701
lowerneck -14.6671 -0.640309 -3.63329
upperneck 34.0162 -2.14436 0.390384
head 14.1015 -2.10314 0.258768
rclavicle -4.12975e-014 -1.74931e-014
rhumerus -76.2275 39.572 -123.07
rradius 48.2137
rwrist -43.1144
rhand 19.9781 -2.34759
rfingers 7.12502
rthumb 44.5146 -26.0358
lclavicle -4.12975e-014 -1.74931e-014
lhumerus -64.2004 -20.5015 102.493
lradius 42.7154
lwrist 11.8577
lhand 26.6787 20.2484
lfingers 7.12502
lthumb 50.6977 41.0969
rfemur -30.9304 3.24442 35.3276
rtibia 27.8251
rfoot -38.4123 -30.9928
rtoes 40.0528
lfemur -26.1251 31.4177 -24.8509
ltibia 55.8086
lfoot 26.1607 40.885
ltoes 33.714
721
root 0.0247367 16.9412 17.4141 -159.535 -30.0234 -176.27
lowerback -12.9453 2.52615 3.29621
upperback -8.98201 2.00693 1.44305
thorax -2.11208 0.458562 -0.110561
lowerneck -14.3679 -0.555559 -3.37872
upperneck 34.2266 -2.17234 0.366569
head 14.1251 -2.11322 0.195832
rclavicle 9.93799e-014 9.14409e-015
rhumerus -76.1869 38.4931 -122.918
rradius 47.8927
rwrist -41.9925
rhand 20.2223 -2.09475
rfingers 7.12502
rthumb 44.7421 -25.6952
lclavicle 9.93799e-014 9.14409e-015
lhumerus -64.6128 -20.4211 102.372
lradius 42.7839
lwrist 11.9002
lhand 26.7543 20.5007
lfingers 7.12502
lthumb 50.7667 41.3113
rfemur -31.7991 3.12047 35.4354
rtibia 27.8061
rfoot -38.3976 -30.8289
rtoes 40.6068
lfemur -27.2164 30.8021 -25.2529
ltibia 55.8365
lfoot 25.9247 41.6607
ltoes 33.4971
722
root 0.00576374 16.9403 17.4108 -159.816 -29.7319 -176.311
lowerback -12.7838 2.64717 3.39109
upperback -8.87953 2.18579 1.34225
thorax -2.07758 0.552766 -0.252589
lowerneck -14.2435 -0.605108 -3.26646
upperneck 34.2825 -2.28116 0.285098
head 14.1224 -2.16497 0.12493
rclavicle -1.22849e-013 -3.06128e-014
rhumerus -76.2664 38.7912 -123.114
rradius 48.0343
rwrist -42.4492
rhand 20.5248 -2.37037
rfingers 7.12502
rthumb 45.0236 -25.8606
lclavicle -1.22849e-013 -3.06128e-014
lhumerus -64.8606 -20.6471 102.495
lradius 43.0836
lwrist 12.0501
lhand 26.7539 20.6862
lfingers 7.12502
lthumb 50.7664 41.497
rfemur -31.4478 2.51653 35.4793
rtibia 27.8398
rfoot -37.801 -30.3264
rtoes 40.3066
lfemur -26.6992 31.0851 -25.1967
ltibia 55.7802
lfoot 27.3501 41.036
ltoes 27.7656
723
root 0.00667004 16.9358 17.4116 -159.96 -29.5639 -176.335
lowerback -12.5827 2.76304 3.33117
upperback -8.95899 2.35697 1.19507
thorax -2.26084 0.633934 -0.360014
lowerneck -13.9014 -0.662559 -3.04284
upperneck 34.4184 -2.51321 0.298643
head 14.1085 -2.25573 0.0525929
rclavicle -2.21272e-014 -9.54166e-015
rhumerus -76.1591 38.0671 -122.993
rradius 47.9654
rwrist -42.2094
rhand 20.934 -2.55702
rfingers 7.12502
rthumb 45.4042 -25.8956
lclavicle -2.21272e-014 -9.54166e-015
lhumerus -65.3021 -20.9916 102.567
lradius 43.3684
lwrist 12.259
lhand 26.9561 21.0273
lfingers 7.12502
lthumb 50.9507 41.7362
rfemur -31.2515 2.50539 35.4449
rtibia 27.8223
rfoot -37.7158 -30.3503
rtoes 40.1039
lfemur -26.4734 31.2266 -25.1551
ltibia 55.7833
lfoot 27.4528 40.8428
ltoes 31.6567
724
root 0.0317297 16.936 17.4315 -159.101 -30.076 -176.302
lowerback -13.0324 2.59645 3.24082
upperback -9.26878 2.06521 1.29696
thorax -2.36581 0.46104 -0.223943
lowerneck -14.11 -0.645559 -3.11433
upperneck 34.6559 -2.49479 0.311242
head 14.2644 -2.26458 0.0649433
rclavicle -1.72197e-014 -1.59028e-014
rhumerus -76.4459 38.424 -123.397
rradius 47.973
rwrist -42.4043
rhand 21.2242 -2.59883
rfingers 7.12502
rthumb 45.6737 -25.828
lclavicle -1.72197e-014 -1.59028e-014
lhumerus -65.2346 -20.8796 102.509
lradius 43.5103
lwrist 12.4753
lhand 27.2245 21.2303
lfingers 7.12502
lthumb 51.1952 41.8021
rfemur -32.3446 3.04104 35.4372
rtibia 27.7753
rfoot -38.1947 -30.8711
rtoes 40.2446
lfemur -27.9351 30.4096 -25.6305
ltibia 55.9185
lfoot 27.4458 41.3978
ltoes 28.6052
725
root 0.0139091 16.9255 17.4023 -160.477 -29.2066 -175.698
lowerback -12.4273 2.73678 3.55226
upperback -8.58018 2.34127 1.65757
thorax -1.95395 0.65506 -0.00587633
lowerneck -15.0506 -0.663253 -3.63246
upperneck 34.9128 -2.31162 0.381981
head 14.6025 -2.22714 0.201967
rclavicle 5.9126e-014 -2.26615e-014
rhumerus -76.769 39.9444 -123.905
rradius 48.1809
rwrist -43.2035
rhand 21.4969 -2.68798
rfingers 7.12502
rthumb 45.9269 -25.8129
lclavicle 5.9126e-014 -2.26615e-014
lhumerus -64.5024 -20.5559 102.433
lradius 43.3819
lwrist 12.5598
lhand 27.2793 21.1168
lfingers 7.12502
lthumb 51.2452 41.6603
rfemur -30.8175 2.94792 36.0037
rtibia 27.6922
rfoot -37.7327 -30.3568
rtoes 39.8141
lfemur -26.2239 31.6954 -24.4629
ltibia 55.8576
lfoot 27.3208 40.9528
ltoes 31.7605
